<svg xmlns="http://www.w3.org/2000/svg" xmlns:xlink="http://www.w3.org/1999/xlink" width="500" zoomAndPan="magnify" viewBox="0 0 375 374.999991" height="500" preserveAspectRatio="xMidYMid meet" version="1.0"><defs><g/><clipPath id="id1"><path d="M 150 193 L 225.195312 193 L 225.195312 301.582031 L 150 301.582031 Z M 150 193 " clip-rule="nonzero"/></clipPath><clipPath id="id2"><path d="M 180 189.082031 L 212 189.082031 L 212 272 L 180 272 Z M 180 189.082031 " clip-rule="nonzero"/></clipPath><clipPath id="id3"><path d="M 220 234 L 225.195312 234 L 225.195312 247 L 220 247 Z M 220 234 " clip-rule="nonzero"/></clipPath></defs><path fill="rgb(25.099182%, 23.919678%, 23.919678%)" d="M 187.378906 340.421875 C 146.941406 340.421875 108.863281 324.683594 80.289062 296.050781 C 51.65625 267.476562 35.917969 229.398438 35.917969 188.960938 C 35.917969 148.523438 51.65625 110.445312 80.289062 81.871094 C 108.863281 53.238281 146.941406 37.5 187.378906 37.5 C 227.816406 37.5 265.894531 53.238281 294.46875 81.871094 C 323.101562 110.507812 338.839844 148.523438 338.839844 188.960938 C 338.839844 229.398438 323.101562 267.476562 294.46875 296.050781 C 265.894531 324.683594 227.816406 340.421875 187.378906 340.421875 Z M 187.378906 46.582031 C 149.363281 46.582031 113.585938 61.410156 86.707031 88.289062 C 59.828125 115.167969 44.996094 150.945312 44.996094 188.960938 C 44.996094 226.976562 59.828125 262.753906 86.707031 289.632812 C 113.585938 316.511719 149.363281 331.34375 187.378906 331.34375 C 225.394531 331.34375 261.171875 316.511719 288.050781 289.632812 C 314.929688 262.753906 329.761719 226.976562 329.761719 188.960938 C 329.761719 150.945312 314.929688 115.167969 288.050781 88.289062 C 261.171875 61.410156 225.394531 46.582031 187.378906 46.582031 Z M 187.378906 46.582031 " fill-opacity="1" fill-rule="nonzero"/><g clip-path="url(#id1)"><path fill="rgb(25.099182%, 23.919678%, 23.919678%)" d="M 186.566406 301.410156 C 191.660156 301.410156 194.238281 300.300781 196.328125 293.886719 C 198.660156 286.550781 199.519531 274.527344 199.335938 271.074219 L 197.492188 271.136719 C 197.675781 274.527344 196.816406 286.179688 194.546875 293.332031 C 192.703125 299.066406 190.925781 299.5625 186.566406 299.5625 C 185.339844 299.5625 184.417969 299.191406 183.679688 298.390625 C 182.148438 296.785156 182.023438 293.765625 182.085938 292.714844 C 182.085938 292.347656 182.761719 283.53125 182.578125 277.796875 C 182.332031 270.582031 176.375 267.746094 173.738281 267.558594 C 172.816406 267.5 167.230469 267.191406 163.609375 267.558594 C 161.152344 267.808594 160.785156 266.390625 160.601562 265.09375 C 160.539062 264.539062 160.539062 263.304688 160.601562 262.441406 C 160.601562 262.011719 160.601562 261.640625 160.601562 261.332031 C 160.601562 260.40625 160.171875 259.113281 159.742188 257.757812 L 159.679688 257.511719 C 159.679688 257.449219 159.925781 257.078125 160.171875 256.957031 L 162.195312 255.660156 L 159.800781 255.230469 C 158.820312 255.042969 158.882812 253.996094 158.882812 253.871094 L 158.882812 253.75 C 158.882812 253.75 158.820312 251.777344 158.882812 250.542969 C 159.003906 247.707031 156.488281 246.597656 156.425781 246.597656 L 156.363281 246.597656 C 156.363281 246.597656 153.910156 245.796875 152.621094 245.300781 C 152.25 245.179688 152.191406 244.992188 152.191406 244.933594 C 151.761719 243.328125 155.445312 238.828125 157.40625 236.421875 C 158.574219 235.003906 159.433594 233.957031 159.800781 233.277344 C 160.785156 231.304688 160.476562 228.160156 160.109375 225.078125 C 160.046875 224.644531 160.046875 224.214844 159.984375 223.84375 C 159.679688 221.007812 160.109375 216.261719 160.90625 212.746094 C 161.644531 209.539062 166.125 204.054688 168.089844 202.632812 C 173.613281 198.566406 180.671875 196.160156 188.46875 195.542969 C 199.765625 194.679688 204.367188 195.976562 213.269531 200.660156 C 221.863281 205.222656 223.765625 218.050781 223.765625 222.179688 C 223.765625 227.421875 221.984375 235.929688 221.984375 235.992188 L 223.765625 236.421875 C 223.828125 236.054688 225.546875 227.605469 225.546875 222.179688 C 225.546875 219.589844 224.933594 215.027344 223.273438 210.589844 C 221.1875 205.101562 218.058594 201.15625 214.066406 199.058594 C 204.980469 194.25 199.949219 192.769531 188.285156 193.695312 C 180.183594 194.3125 172.753906 196.902344 166.921875 201.09375 C 164.773438 202.632812 159.863281 208.554688 159.066406 212.253906 C 158.207031 215.953125 157.835938 220.945312 158.144531 223.96875 C 158.207031 224.398438 158.207031 224.769531 158.265625 225.203125 C 158.511719 227.730469 158.882812 230.875 158.144531 232.355469 C 157.898438 232.847656 156.976562 233.957031 155.996094 235.191406 C 152.4375 239.507812 149.796875 243.019531 150.410156 245.363281 C 150.53125 245.917969 150.960938 246.597656 152.007812 247.027344 C 153.234375 247.460938 155.382812 248.199219 155.75 248.324219 C 155.933594 248.382812 157.164062 249.0625 157.101562 250.542969 C 157.039062 251.714844 157.101562 253.503906 157.101562 253.8125 C 157.039062 254.550781 157.285156 255.722656 158.144531 256.460938 C 157.835938 256.957031 157.714844 257.511719 157.898438 258.125 L 157.960938 258.375 C 158.207031 259.175781 158.757812 260.65625 158.757812 261.394531 C 158.757812 261.640625 158.757812 262.011719 158.757812 262.441406 C 158.695312 263.492188 158.695312 264.664062 158.820312 265.402344 C 159.3125 269.039062 161.828125 269.59375 163.792969 269.410156 C 166.984375 269.101562 172.203125 269.347656 173.613281 269.410156 C 175.457031 269.535156 180.488281 271.816406 180.734375 277.917969 C 180.917969 283.53125 180.304688 292.53125 180.304688 292.59375 C 180.304688 292.777344 180.058594 297.15625 182.390625 299.683594 C 183.375 300.792969 184.785156 301.410156 186.566406 301.410156 Z M 186.566406 301.410156 " fill-opacity="1" fill-rule="nonzero"/></g><g clip-path="url(#id2)"><path fill="rgb(25.099182%, 23.919678%, 23.919678%)" d="M 196.140625 272 L 200.5625 272 L 200.5625 268.300781 L 201.914062 268.300781 L 201.484375 253.253906 C 207.804688 251.097656 211.980469 245.117188 211.734375 238.394531 L 211.425781 227.542969 C 211.242188 221.808594 207.558594 216.632812 202.035156 214.289062 L 200.253906 189.253906 L 187.488281 189.253906 L 187.488281 215.210938 C 182.761719 218.109375 179.9375 223.167969 180.121094 228.53125 L 180.425781 239.382812 C 180.671875 247.089844 186.6875 253.378906 194.238281 254.058594 L 195.039062 268.175781 L 196.082031 268.175781 Z M 198.660156 270.148438 L 197.921875 270.148438 L 197.921875 266.328125 L 196.816406 266.328125 L 196.019531 252.332031 L 195.160156 252.332031 C 188.164062 252.144531 182.453125 246.472656 182.269531 239.382812 L 181.960938 228.53125 C 181.839844 223.660156 184.480469 219.097656 188.835938 216.570312 L 189.328125 216.324219 L 189.328125 191.042969 L 198.535156 191.042969 L 200.253906 215.519531 L 200.808594 215.707031 C 205.964844 217.742188 209.402344 222.363281 209.585938 227.542969 L 209.894531 238.394531 C 210.078125 244.5 206.148438 249.925781 200.253906 251.652344 L 199.582031 251.835938 L 200.011719 266.390625 L 198.71875 266.390625 Z M 198.660156 270.148438 " fill-opacity="1" fill-rule="nonzero"/></g><g clip-path="url(#id3)"><path fill="rgb(25.099182%, 23.919678%, 23.919678%)" d="M 225.300781 235.128906 L 221.3125 234.265625 L 220.082031 241.789062 L 221.066406 242.09375 L 220.265625 246.597656 L 221.066406 246.84375 L 222.355469 242.464844 L 223.582031 242.898438 Z M 225.300781 235.128906 " fill-opacity="1" fill-rule="nonzero"/></g><g fill="rgb(25.099182%, 23.919678%, 23.919678%)" fill-opacity="1"><g transform="translate(146.887927, 106.476555)"><g><path d="M 28.59375 -12 C 28.59375 -10.226562 28.257812 -8.582031 27.59375 -7.0625 C 26.925781 -5.550781 25.992188 -4.238281 24.796875 -3.125 C 23.597656 -2.007812 22.191406 -1.125 20.578125 -0.46875 C 18.960938 0.175781 17.203125 0.5 15.296875 0.5 C 11.035156 0.5 7.742188 -1.03125 5.421875 -4.09375 C 3.109375 -7.164062 1.953125 -11.46875 1.953125 -17 C 1.953125 -19.9375 2.273438 -22.5625 2.921875 -24.875 C 3.578125 -27.1875 4.519531 -29.148438 5.75 -30.765625 C 6.976562 -32.390625 8.476562 -33.632812 10.25 -34.5 C 12.019531 -35.363281 14.019531 -35.796875 16.25 -35.796875 C 20.582031 -35.796875 24.347656 -34.195312 27.546875 -31 L 22.296875 -24.90625 C 20.492188 -26.695312 18.425781 -27.59375 16.09375 -27.59375 C 14.46875 -27.59375 13.175781 -27.101562 12.21875 -26.125 C 11.269531 -25.144531 10.765625 -23.753906 10.703125 -21.953125 C 11.960938 -23.085938 13.757812 -23.65625 16.09375 -23.65625 C 17.894531 -23.65625 19.550781 -23.363281 21.0625 -22.78125 C 22.582031 -22.195312 23.898438 -21.378906 25.015625 -20.328125 C 26.140625 -19.273438 27.015625 -18.039062 27.640625 -16.625 C 28.273438 -15.207031 28.59375 -13.664062 28.59375 -12 Z M 15.296875 -7.453125 C 15.867188 -7.453125 16.410156 -7.578125 16.921875 -7.828125 C 17.441406 -8.078125 17.890625 -8.410156 18.265625 -8.828125 C 18.648438 -9.242188 18.957031 -9.722656 19.1875 -10.265625 C 19.425781 -10.816406 19.546875 -11.394531 19.546875 -12 C 19.546875 -13.164062 19.128906 -14.15625 18.296875 -14.96875 C 17.460938 -15.789062 16.460938 -16.203125 15.296875 -16.203125 C 14.128906 -16.203125 13.128906 -15.789062 12.296875 -14.96875 C 11.460938 -14.15625 11.046875 -13.164062 11.046875 -12 C 11.046875 -11.394531 11.160156 -10.816406 11.390625 -10.265625 C 11.628906 -9.722656 11.941406 -9.242188 12.328125 -8.828125 C 12.710938 -8.410156 13.160156 -8.078125 13.671875 -7.828125 C 14.191406 -7.578125 14.734375 -7.453125 15.296875 -7.453125 Z M 15.296875 -7.453125 "/></g></g></g><g fill="rgb(25.099182%, 23.919678%, 23.919678%)" fill-opacity="1"><g transform="translate(177.283227, 106.476555)"><g><path d="M 28.59375 -14.65625 C 28.59375 -12.445312 28.257812 -10.414062 27.59375 -8.5625 C 26.925781 -6.71875 26 -5.117188 24.8125 -3.765625 C 23.632812 -2.421875 22.238281 -1.375 20.625 -0.625 C 19.007812 0.125 17.25 0.5 15.34375 0.5 C 13.445312 0.5 11.691406 0.125 10.078125 -0.625 C 8.460938 -1.375 7.0625 -2.421875 5.875 -3.765625 C 4.6875 -5.117188 3.757812 -6.71875 3.09375 -8.5625 C 2.425781 -10.414062 2.09375 -12.445312 2.09375 -14.65625 C 2.09375 -16.851562 2.425781 -18.875 3.09375 -20.71875 C 3.757812 -22.570312 4.6875 -24.171875 5.875 -25.515625 C 7.0625 -26.867188 8.460938 -27.925781 10.078125 -28.6875 C 11.691406 -29.457031 13.445312 -29.84375 15.34375 -29.84375 C 17.25 -29.84375 19.007812 -29.457031 20.625 -28.6875 C 22.238281 -27.925781 23.632812 -26.867188 24.8125 -25.515625 C 26 -24.171875 26.925781 -22.570312 27.59375 -20.71875 C 28.257812 -18.875 28.59375 -16.851562 28.59375 -14.65625 Z M 19 -14.65625 C 19 -16.582031 18.65625 -18.144531 17.96875 -19.34375 C 17.289062 -20.550781 16.414062 -21.15625 15.34375 -21.15625 C 14.21875 -21.15625 13.3125 -20.550781 12.625 -19.34375 C 11.9375 -18.144531 11.59375 -16.582031 11.59375 -14.65625 C 11.59375 -12.71875 11.9375 -11.15625 12.625 -9.96875 C 13.3125 -8.789062 14.21875 -8.203125 15.34375 -8.203125 C 16.414062 -8.203125 17.289062 -8.789062 17.96875 -9.96875 C 18.65625 -11.15625 19 -12.71875 19 -14.65625 Z M 19 -14.65625 "/></g></g></g><g fill="rgb(25.099182%, 23.919678%, 23.919678%)" fill-opacity="1"><g transform="translate(207.978476, 106.476555)"><g><path d="M 2.65625 -24.796875 L 2.65625 -36.5 L 10.65625 -36.5 L 10.65625 -24.796875 Z M 13.15625 -24.796875 L 13.15625 -36.5 L 21.15625 -36.5 L 21.15625 -24.796875 Z M 13.15625 -24.796875 "/></g></g></g><g fill="rgb(25.099182%, 23.919678%, 23.919678%)" fill-opacity="1"><g transform="translate(83.419181, 158.976551)"><g><path d="M 24.546875 -23.90625 C 23.546875 -24.5 22.515625 -25.03125 21.453125 -25.5 C 20.546875 -25.894531 19.535156 -26.269531 18.421875 -26.625 C 17.304688 -26.976562 16.21875 -27.15625 15.15625 -27.15625 C 14.28125 -27.15625 13.582031 -27.019531 13.0625 -26.75 C 12.550781 -26.476562 12.296875 -26.03125 12.296875 -25.40625 C 12.296875 -24.9375 12.445312 -24.550781 12.75 -24.25 C 13.050781 -23.945312 13.484375 -23.671875 14.046875 -23.421875 C 14.617188 -23.171875 15.3125 -22.925781 16.125 -22.6875 C 16.9375 -22.457031 17.863281 -22.175781 18.90625 -21.84375 C 20.53125 -21.34375 22 -20.789062 23.3125 -20.1875 C 24.632812 -19.59375 25.757812 -18.882812 26.6875 -18.0625 C 27.625 -17.25 28.34375 -16.257812 28.84375 -15.09375 C 29.34375 -13.925781 29.59375 -12.507812 29.59375 -10.84375 C 29.59375 -8.71875 29.203125 -6.925781 28.421875 -5.46875 C 27.640625 -4.019531 26.609375 -2.863281 25.328125 -2 C 24.046875 -1.132812 22.59375 -0.507812 20.96875 -0.125 C 19.351562 0.257812 17.726562 0.453125 16.09375 0.453125 C 14.800781 0.453125 13.46875 0.347656 12.09375 0.140625 C 10.726562 -0.0546875 9.367188 -0.335938 8.015625 -0.703125 C 6.671875 -1.066406 5.375 -1.5 4.125 -2 C 2.875 -2.5 1.71875 -3.066406 0.65625 -3.703125 L 4.84375 -12.25 C 6.007812 -11.519531 7.226562 -10.867188 8.5 -10.296875 C 9.5625 -9.796875 10.769531 -9.34375 12.125 -8.9375 C 13.476562 -8.539062 14.851562 -8.34375 16.25 -8.34375 C 17.3125 -8.34375 18.050781 -8.484375 18.46875 -8.765625 C 18.882812 -9.054688 19.09375 -9.4375 19.09375 -9.90625 C 19.09375 -10.40625 18.882812 -10.828125 18.46875 -11.171875 C 18.050781 -11.523438 17.476562 -11.832031 16.75 -12.09375 C 16.019531 -12.363281 15.175781 -12.628906 14.21875 -12.890625 C 13.269531 -13.160156 12.265625 -13.476562 11.203125 -13.84375 C 9.628906 -14.382812 8.273438 -14.960938 7.140625 -15.578125 C 6.015625 -16.191406 5.082031 -16.890625 4.34375 -17.671875 C 3.613281 -18.453125 3.070312 -19.34375 2.71875 -20.34375 C 2.375 -21.34375 2.203125 -22.492188 2.203125 -23.796875 C 2.203125 -25.765625 2.554688 -27.5 3.265625 -29 C 3.984375 -30.5 4.957031 -31.75 6.1875 -32.75 C 7.425781 -33.75 8.835938 -34.503906 10.421875 -35.015625 C 12.003906 -35.535156 13.679688 -35.796875 15.453125 -35.796875 C 16.753906 -35.796875 18.019531 -35.671875 19.25 -35.421875 C 20.476562 -35.171875 21.664062 -34.851562 22.8125 -34.46875 C 23.96875 -34.09375 25.046875 -33.675781 26.046875 -33.21875 C 27.046875 -32.769531 27.945312 -32.347656 28.75 -31.953125 Z M 24.546875 -23.90625 "/></g></g></g><g fill="rgb(25.099182%, 23.919678%, 23.919678%)" fill-opacity="1"><g transform="translate(114.264405, 158.976551)"><g><path d="M 15.34375 0.5 C 13.050781 0.5 11.003906 0.140625 9.203125 -0.578125 C 7.398438 -1.296875 5.890625 -2.269531 4.671875 -3.5 C 3.453125 -4.726562 2.523438 -6.144531 1.890625 -7.75 C 1.265625 -9.351562 0.953125 -11.035156 0.953125 -12.796875 C 0.953125 -14.703125 1.257812 -16.503906 1.875 -18.203125 C 2.488281 -19.898438 3.40625 -21.378906 4.625 -22.640625 C 5.84375 -23.910156 7.34375 -24.921875 9.125 -25.671875 C 10.90625 -26.421875 12.976562 -26.796875 15.34375 -26.796875 C 17.675781 -26.796875 19.742188 -26.421875 21.546875 -25.671875 C 23.347656 -24.921875 24.859375 -23.921875 26.078125 -22.671875 C 27.296875 -21.421875 28.210938 -19.96875 28.828125 -18.3125 C 29.441406 -16.664062 29.75 -14.945312 29.75 -13.15625 C 29.75 -12.65625 29.722656 -12.144531 29.671875 -11.625 C 29.617188 -11.101562 29.5625 -10.644531 29.5 -10.25 L 11.046875 -10.25 C 11.148438 -8.851562 11.664062 -7.84375 12.59375 -7.21875 C 13.53125 -6.601562 14.550781 -6.296875 15.65625 -6.296875 C 16.6875 -6.296875 17.660156 -6.53125 18.578125 -7 C 19.492188 -7.46875 20.101562 -8.117188 20.40625 -8.953125 L 28.453125 -6.65625 C 27.378906 -4.550781 25.734375 -2.832031 23.515625 -1.5 C 21.304688 -0.164062 18.582031 0.5 15.34375 0.5 Z M 19.546875 -15.953125 C 19.378906 -17.210938 18.910156 -18.207031 18.140625 -18.9375 C 17.378906 -19.675781 16.398438 -20.046875 15.203125 -20.046875 C 14.003906 -20.046875 13.019531 -19.675781 12.25 -18.9375 C 11.476562 -18.207031 11.007812 -17.210938 10.84375 -15.953125 Z M 19.546875 -15.953125 "/></g></g></g><g fill="rgb(25.099182%, 23.919678%, 23.919678%)" fill-opacity="1"><g transform="translate(144.759681, 158.976551)"><g><path d="M 0.953125 -13.15625 C 0.953125 -14.945312 1.265625 -16.664062 1.890625 -18.3125 C 2.523438 -19.96875 3.453125 -21.421875 4.671875 -22.671875 C 5.890625 -23.921875 7.398438 -24.921875 9.203125 -25.671875 C 11.003906 -26.421875 13.070312 -26.796875 15.40625 -26.796875 C 18.601562 -26.796875 21.273438 -26.128906 23.421875 -24.796875 C 25.578125 -23.460938 27.1875 -21.75 28.25 -19.65625 L 19 -16.84375 C 18.101562 -18.144531 16.882812 -18.796875 15.34375 -18.796875 C 14.050781 -18.796875 12.953125 -18.300781 12.046875 -17.3125 C 11.148438 -16.332031 10.703125 -14.945312 10.703125 -13.15625 C 10.703125 -11.351562 11.148438 -9.957031 12.046875 -8.96875 C 12.953125 -7.988281 14.050781 -7.5 15.34375 -7.5 C 16.882812 -7.5 18.101562 -8.148438 19 -9.453125 L 28.25 -6.65625 C 27.1875 -4.550781 25.578125 -2.832031 23.421875 -1.5 C 21.273438 -0.164062 18.601562 0.5 15.40625 0.5 C 13.070312 0.5 11.003906 0.125 9.203125 -0.625 C 7.398438 -1.375 5.890625 -2.375 4.671875 -3.625 C 3.453125 -4.875 2.523438 -6.320312 1.890625 -7.96875 C 1.265625 -9.625 0.953125 -11.351562 0.953125 -13.15625 Z M 0.953125 -13.15625 "/></g></g></g><g fill="rgb(25.099182%, 23.919678%, 23.919678%)" fill-opacity="1"><g transform="translate(173.555222, 158.976551)"><g><path d="M 15.34375 0.5 C 12.976562 0.5 10.90625 0.125 9.125 -0.625 C 7.34375 -1.375 5.84375 -2.375 4.625 -3.625 C 3.40625 -4.875 2.488281 -6.320312 1.875 -7.96875 C 1.257812 -9.625 0.953125 -11.351562 0.953125 -13.15625 C 0.953125 -14.945312 1.257812 -16.664062 1.875 -18.3125 C 2.488281 -19.96875 3.40625 -21.421875 4.625 -22.671875 C 5.84375 -23.921875 7.34375 -24.921875 9.125 -25.671875 C 10.90625 -26.421875 12.976562 -26.796875 15.34375 -26.796875 C 17.675781 -26.796875 19.742188 -26.421875 21.546875 -25.671875 C 23.347656 -24.921875 24.859375 -23.921875 26.078125 -22.671875 C 27.296875 -21.421875 28.210938 -19.96875 28.828125 -18.3125 C 29.441406 -16.664062 29.75 -14.945312 29.75 -13.15625 C 29.75 -11.351562 29.441406 -9.625 28.828125 -7.96875 C 28.210938 -6.320312 27.296875 -4.875 26.078125 -3.625 C 24.859375 -2.375 23.347656 -1.375 21.546875 -0.625 C 19.742188 0.125 17.675781 0.5 15.34375 0.5 Z M 10.703125 -13.15625 C 10.703125 -11.382812 11.132812 -10 12 -9 C 12.863281 -8 13.976562 -7.5 15.34375 -7.5 C 16.71875 -7.5 17.835938 -8 18.703125 -9 C 19.566406 -10 20 -11.382812 20 -13.15625 C 20 -14.914062 19.566406 -16.296875 18.703125 -17.296875 C 17.835938 -18.296875 16.71875 -18.796875 15.34375 -18.796875 C 13.976562 -18.796875 12.863281 -18.296875 12 -17.296875 C 11.132812 -16.296875 10.703125 -14.914062 10.703125 -13.15625 Z M 10.703125 -13.15625 "/></g></g></g><g fill="rgb(25.099182%, 23.919678%, 23.919678%)" fill-opacity="1"><g transform="translate(204.250472, 158.976551)"><g><path d="M 28.84375 0 L 19.34375 0 L 19.34375 -14.796875 C 19.34375 -16.097656 19.050781 -17.039062 18.46875 -17.625 C 17.882812 -18.207031 17.210938 -18.5 16.453125 -18.5 C 15.648438 -18.5 14.796875 -18.148438 13.890625 -17.453125 C 12.992188 -16.753906 12.332031 -15.851562 11.90625 -14.75 L 11.90625 0 L 2.40625 0 L 2.40625 -26.296875 L 10.953125 -26.296875 L 10.953125 -22.40625 C 11.878906 -23.832031 13.1875 -24.921875 14.875 -25.671875 C 16.5625 -26.421875 18.550781 -26.796875 20.84375 -26.796875 C 22.644531 -26.796875 24.070312 -26.46875 25.125 -25.8125 C 26.175781 -25.164062 26.972656 -24.359375 27.515625 -23.390625 C 28.066406 -22.429688 28.425781 -21.398438 28.59375 -20.296875 C 28.757812 -19.203125 28.84375 -18.203125 28.84375 -17.296875 Z M 28.84375 0 "/></g></g></g><g fill="rgb(25.099182%, 23.919678%, 23.919678%)" fill-opacity="1"><g transform="translate(235.29567, 158.976551)"><g><path d="M 13.40625 0.5 C 11.601562 0.5 9.941406 0.164062 8.421875 -0.5 C 6.910156 -1.164062 5.601562 -2.109375 4.5 -3.328125 C 3.394531 -4.546875 2.535156 -5.992188 1.921875 -7.671875 C 1.304688 -9.359375 1 -11.203125 1 -13.203125 C 1 -15.128906 1.28125 -16.925781 1.84375 -18.59375 C 2.414062 -20.257812 3.207031 -21.703125 4.21875 -22.921875 C 5.238281 -24.140625 6.445312 -25.085938 7.84375 -25.765625 C 9.25 -26.453125 10.800781 -26.796875 12.5 -26.796875 C 14.195312 -26.796875 15.753906 -26.410156 17.171875 -25.640625 C 18.585938 -24.878906 19.679688 -23.800781 20.453125 -22.40625 L 20.453125 -36.5 L 29.953125 -36.5 L 29.953125 -10.5 C 29.953125 -9.601562 30.117188 -8.976562 30.453125 -8.625 C 30.785156 -8.269531 31.382812 -8.0625 32.25 -8 L 32.25 0 C 31.28125 0.164062 30.425781 0.289062 29.6875 0.375 C 28.957031 0.457031 28.3125 0.5 27.75 0.5 C 24.519531 0.5 22.65625 -0.71875 22.15625 -3.15625 L 21.953125 -4.09375 C 21.046875 -2.5 19.828125 -1.332031 18.296875 -0.59375 C 16.765625 0.132812 15.132812 0.5 13.40625 0.5 Z M 16 -7.5 C 17.726562 -7.5 19.226562 -8.398438 20.5 -10.203125 L 20.5 -14.90625 C 20.03125 -16.070312 19.34375 -17.007812 18.4375 -17.71875 C 17.539062 -18.4375 16.59375 -18.796875 15.59375 -18.796875 C 14.894531 -18.796875 14.253906 -18.644531 13.671875 -18.34375 C 13.085938 -18.050781 12.585938 -17.632812 12.171875 -17.09375 C 11.753906 -16.5625 11.421875 -15.945312 11.171875 -15.25 C 10.921875 -14.550781 10.796875 -13.800781 10.796875 -13 C 10.796875 -11.332031 11.269531 -10 12.21875 -9 C 13.175781 -8 14.4375 -7.5 16 -7.5 Z M 16 -7.5 "/></g></g></g><g fill="rgb(25.099182%, 23.919678%, 23.919678%)" fill-opacity="1"><g transform="translate(268.890474, 158.976551)"><g><path d="M 14.09375 0.5 C 13 0.5 11.816406 0.414062 10.546875 0.25 C 9.285156 0.0820312 8.046875 -0.128906 6.828125 -0.390625 C 5.609375 -0.660156 4.429688 -0.988281 3.296875 -1.375 C 2.160156 -1.757812 1.175781 -2.1875 0.34375 -2.65625 L 4 -9.09375 C 5.832031 -8.132812 7.582031 -7.40625 9.25 -6.90625 C 10.914062 -6.40625 12.46875 -6.15625 13.90625 -6.15625 C 15.570312 -6.15625 16.40625 -6.570312 16.40625 -7.40625 C 16.40625 -7.832031 16.070312 -8.210938 15.40625 -8.546875 C 14.738281 -8.878906 13.46875 -9.28125 11.59375 -9.75 C 9.726562 -10.25 8.160156 -10.75 6.890625 -11.25 C 5.628906 -11.75 4.613281 -12.304688 3.84375 -12.921875 C 3.082031 -13.535156 2.535156 -14.21875 2.203125 -14.96875 C 1.867188 -15.71875 1.703125 -16.59375 1.703125 -17.59375 C 1.703125 -18.925781 1.972656 -20.160156 2.515625 -21.296875 C 3.066406 -22.429688 3.84375 -23.414062 4.84375 -24.25 C 5.84375 -25.082031 7.035156 -25.722656 8.421875 -26.171875 C 9.804688 -26.617188 11.316406 -26.84375 12.953125 -26.84375 C 14.710938 -26.84375 16.601562 -26.59375 18.625 -26.09375 C 20.644531 -25.59375 22.703125 -24.863281 24.796875 -23.90625 L 21.15625 -17.84375 C 19.28125 -18.71875 17.726562 -19.34375 16.5 -19.71875 C 15.269531 -20.101562 14.085938 -20.296875 12.953125 -20.296875 C 12.210938 -20.296875 11.617188 -20.1875 11.171875 -19.96875 C 10.722656 -19.757812 10.5 -19.421875 10.5 -18.953125 C 10.5 -18.679688 10.566406 -18.453125 10.703125 -18.265625 C 10.835938 -18.085938 11.070312 -17.914062 11.40625 -17.75 C 11.738281 -17.582031 12.195312 -17.40625 12.78125 -17.21875 C 13.363281 -17.039062 14.085938 -16.851562 14.953125 -16.65625 C 16.953125 -16.15625 18.632812 -15.628906 20 -15.078125 C 21.363281 -14.523438 22.453125 -13.921875 23.265625 -13.265625 C 24.085938 -12.617188 24.671875 -11.882812 25.015625 -11.0625 C 25.367188 -10.25 25.546875 -9.3125 25.546875 -8.25 C 25.546875 -5.550781 24.519531 -3.414062 22.46875 -1.84375 C 20.425781 -0.28125 17.632812 0.5 14.09375 0.5 Z M 14.09375 0.5 "/></g></g></g></svg>